<?xml version="1.0" encoding="UTF-8" standalone="no"?>
<svg xmlns="http://www.w3.org/2000/svg" viewBox="0 0 1940 560" text-rendering="geometricPrecision" shape-rendering="geometricPrecision">
  <g id="g8" transform="translate(-92.7911, 2144.2396)scale(1.3333, -1.3333)" fill="#ffffff">
    <g id="g18" transform="translate(1014.124, 1608.1313)">
      <path id="path20" fill="#ffffff" stroke="none" d="M0,0C-59.417,0,-108.298,-51.681,-114.576,-118.082L345.249,-118.082L386.635,-118.082L508.471,-118.082L508.471,0L0,0z"/>
    </g>
    <g id="g22" transform="translate(1187.2451, 1459.9248)">
      <path id="path24" fill="#ffffff" stroke="none" d="M0,0L-287.576,0C-280.855,-65.864,-232.189,-116.968,-173.121,-116.968L-0.893,-116.968C8.233,-116.968,15.64,-124.382,15.64,-133.5C15.64,-142.62,8.36,-149.913,-0.771,-149.913L-1.659,-149.873L-417.646,-149.873L-449.47,-118.258C-370.598,-118.258,-306.661,-58.611,-306.661,14.974C-306.661,88.561,-370.598,148.207,-449.47,148.207L-1117.591,148.207L-1117.591,31.105L-950.562,31.105L-950.562,-107.496L-950.562,-245.674L-950.562,-267.955L-828.718,-267.955L-828.718,-265.564L-828.718,-107.496L-828.718,31.105L-727.532,31.105L-605.695,31.105L-453.614,31.105C-444.333,31.105,-436.805,23.973,-436.805,15.176C-436.805,6.379,-444.333,-0.752,-453.614,-0.752L-605.695,-0.752L-727.532,-0.752L-727.532,-99.038L-727.532,-267.955L-605.695,-267.955L-605.695,-121.83L-458.536,-267.955L-303.601,-267.955L-298.725,-267.955L0,-267.955C77.784,-267.955,140.835,-207.988,140.835,-133.984C140.835,-59.995,77.784,0,0,0"/>
    </g>
    <g id="g26" transform="translate(1400.7588, 1459.9248)">
      <path id="path28" fill="#ffffff" stroke="none" d="M0,0L0,-105.536L0,-260.165L0,-267.955L121.836,-267.955L121.836,-241.805L121.836,-105.536L121.836,0L0,0z"/>
    </g>
  </g>
</svg>